<?xml version="1.0" standalone="no"?>
<!DOCTYPE svg PUBLIC "-//W3C//DTD SVG 20010904//EN"
 "http://www.w3.org/TR/2001/REC-SVG-20010904/DTD/svg10.dtd">
<svg version="1.0" xmlns="http://www.w3.org/2000/svg"
 width="1084.000000pt" height="847.000000pt" viewBox="0 0 1084.000000 847.000000"
 preserveAspectRatio="xMidYMid meet">

<g transform="translate(0.000000,847.000000) scale(0.100000,-0.100000)"
fill="#000000" stroke="none">
<path d="M0 4235 l0 -4235 5420 0 5420 0 0 4235 0 4235 -5420 0 -5420 0 0
-4235z m5949 3689 c51 -48 120 -123 153 -166 238 -314 414 -760 449 -1139 16
-174 6 -626 -15 -744 -52 -276 -143 -540 -271 -782 -118 -224 -330 -524 -481
-683 -44 -47 -102 -118 -127 -158 -26 -40 -130 -184 -230 -320 -219 -294 -295
-405 -371 -534 -226 -387 -347 -857 -363 -1415 -3 -112 -9 -203 -13 -203 -14
0 -127 303 -164 441 -56 204 -77 510 -57 796 25 341 72 489 376 1193 197 456
251 608 275 780 16 113 13 432 -4 516 -43 202 -146 442 -246 574 -15 19 -35
48 -46 64 l-18 29 42 -7 c100 -15 256 -118 369 -241 127 -137 211 -303 269
-531 43 -171 63 -234 74 -234 4 0 16 12 25 26 10 15 52 63 95 108 80 84 109
128 117 180 3 16 36 98 74 182 127 281 201 545 230 822 15 144 6 522 -15 652
-39 239 -91 426 -181 651 -35 86 -67 177 -70 204 -7 44 -6 46 12 37 10 -6 61
-50 112 -98z m1607 -1934 c110 -5 296 -21 413 -35 116 -14 225 -25 242 -25 40
0 618 -279 734 -354 199 -129 416 -326 559 -506 208 -262 373 -586 460 -902
170 -619 103 -1252 -190 -1808 -273 -515 -707 -914 -1225 -1123 -46 -19 -120
-50 -164 -70 -81 -37 -322 -94 -492 -117 -149 -20 -492 -29 -1048 -29 -504 0
-1020 11 -1030 21 -15 14 -27 182 -27 358 0 223 17 386 53 506 l21 72 582 6
c319 3 716 5 881 4 451 -2 635 26 910 139 181 75 196 84 329 220 196 201 296
337 381 516 105 221 130 346 130 647 0 247 -8 311 -57 455 -86 256 -244 507
-430 682 -40 38 -85 80 -101 96 -16 15 -31 27 -34 27 -3 0 -18 11 -35 25 -16
13 -51 31 -77 39 -27 8 -89 35 -137 59 -142 72 -291 109 -517 127 -70 5 -159
10 -196 10 -38 0 -89 3 -114 6 l-46 7 -6 56 c-28 256 -66 434 -144 676 -27 83
-52 164 -56 182 -6 31 -6 32 37 36 84 7 195 6 394 -3z m-4166 -28 c30 -10 82
-24 115 -31 520 -113 835 -278 1254 -659 l84 -76 -7 -82 c-8 -108 -53 -281
-109 -425 -52 -134 -279 -639 -287 -639 -3 0 -18 25 -34 56 -133 253 -240 398
-410 551 -110 100 -211 165 -416 268 l-175 88 -663 5 -662 5 2 -1506 c2 -1219
5 -1508 16 -1519 10 -10 141 -14 631 -17 l618 -3 199 100 c228 116 336 185
467 298 102 89 135 110 148 97 5 -5 13 -43 19 -83 19 -153 117 -465 229 -729
34 -79 61 -149 61 -155 0 -13 -87 -72 -206 -139 -216 -124 -455 -217 -659
-257 -60 -12 -147 -30 -193 -41 -165 -39 -309 -44 -1152 -43 -443 0 -875 4
-961 8 l-156 8 -7 121 c-3 66 -6 1177 -6 2468 l0 2348 143 4 c78 2 574 3 1102
1 902 -3 964 -5 1015 -22z m3462 -111 c177 -414 226 -895 126 -1266 -72 -270
-299 -663 -593 -1023 -168 -207 -176 -219 -325 -467 -297 -496 -453 -857 -541
-1250 -30 -132 -39 -313 -29 -536 16 -336 58 -511 219 -897 40 -96 70 -176 68
-178 -6 -6 -51 38 -138 137 -318 359 -538 822 -616 1294 -22 136 -25 532 -5
665 70 468 220 809 560 1280 170 235 566 714 646 782 24 21 47 50 50 65 4 15
45 93 91 173 173 300 293 553 341 719 30 105 90 401 100 493 7 76 16 78 46 9z"/>
</g>
</svg>
